<svg width="57" height="57" viewBox="0 0 57 57" fill="none" xmlns="http://www.w3.org/2000/svg">
<path d="M28.5 0C12.7855 0 0 12.7844 0 28.5C0 44.2156 12.7855 57 28.5 57C44.2145 57 57 44.2156 57 28.5C57 12.7844 44.2145 0 28.5 0Z" fill="#349850"/>
<path d="M42.7764 17.3688L25.9296 36.3213L15.7803 28.2021C15.309 27.8239 14.6173 27.9018 14.2402 28.3731C13.862 28.8467 13.9388 29.5361 14.4112 29.9143L25.3728 38.6835C25.5745 38.8447 25.8167 38.9236 26.0579 38.9236C26.3604 38.9236 26.6618 38.7986 26.8778 38.5553L44.4162 18.8245C44.8185 18.3729 44.778 17.679 44.3253 17.2778C43.8715 16.8745 43.1798 16.915 42.7764 17.3688Z" fill="white"/>
</svg>
