<svg width="69" height="69" viewBox="0 0 69 69" fill="none" xmlns="http://www.w3.org/2000/svg">
<path d="M34.5 0C15.4772 0 0 15.4759 0 34.5C0 53.5241 15.4772 69 34.5 69C53.5228 69 69 53.5241 69 34.5C69 15.4759 53.5228 0 34.5 0ZM34.5 66.3462C16.9408 66.3462 2.65385 52.0592 2.65385 34.5C2.65385 16.9408 16.9408 2.65385 34.5 2.65385C52.0592 2.65385 66.3462 16.9408 66.3462 34.5C66.3462 52.0592 52.0592 66.3462 34.5 66.3462Z" fill="#27AE60"/>
<path d="M50.7576 20.3498L30.3641 43.2923L18.0782 33.4638C17.5076 33.006 16.6703 33.1002 16.2138 33.6708C15.756 34.244 15.8489 35.0786 16.4208 35.5364L29.6901 46.1518C29.9342 46.3469 30.2275 46.4424 30.5194 46.4424C30.8856 46.4424 31.2505 46.2911 31.5119 45.9966L52.7427 22.1119C53.2297 21.5653 53.1806 20.7253 52.6326 20.2397C52.0832 19.7514 51.2459 19.8005 50.7576 20.3498Z" fill="#27AE60"/>
</svg>
