<svg width="24" height="24" viewBox="0 0 24 24" fill="none" xmlns="http://www.w3.org/2000/svg">
<path d="M12 22C17.5228 22 22 17.5228 22 12C22 6.47715 17.5228 2 12 2C6.47715 2 2 6.47715 2 12C2 17.5228 6.47715 22 12 22Z" fill="#027A48"/>
<path d="M7.85355 11.6464C7.65829 11.4512 7.34171 11.4512 7.14645 11.6464C6.95118 11.8417 6.95118 12.1583 7.14645 12.3536L7.85355 11.6464ZM10.5 15L10.1464 15.3536C10.3417 15.5488 10.6583 15.5488 10.8536 15.3536L10.5 15ZM16.8536 9.35355C17.0488 9.15829 17.0488 8.84171 16.8536 8.64645C16.6583 8.45118 16.3417 8.45118 16.1464 8.64645L16.8536 9.35355ZM21.5 12C21.5 17.2467 17.2467 21.5 12 21.5V22.5C17.799 22.5 22.5 17.799 22.5 12H21.5ZM12 21.5C6.75329 21.5 2.5 17.2467 2.5 12H1.5C1.5 17.799 6.20101 22.5 12 22.5V21.5ZM2.5 12C2.5 6.75329 6.75329 2.5 12 2.5V1.5C6.20101 1.5 1.5 6.20101 1.5 12H2.5ZM12 2.5C17.2467 2.5 21.5 6.75329 21.5 12H22.5C22.5 6.20101 17.799 1.5 12 1.5V2.5ZM7.14645 12.3536L10.1464 15.3536L10.8536 14.6464L7.85355 11.6464L7.14645 12.3536ZM10.8536 15.3536L13.8536 12.3536L13.1464 11.6464L10.1464 14.6464L10.8536 15.3536ZM13.8536 12.3536L16.8536 9.35355L16.1464 8.64645L13.1464 11.6464L13.8536 12.3536Z" fill="#F7FCF7"/>
</svg>
