<svg width="63" height="63" viewBox="0 0 63 63" fill="none" xmlns="http://www.w3.org/2000/svg">
<path d="M31.5 0C14.1314 0 0 14.1302 0 31.5C0 48.8698 14.1314 63 31.5 63C48.8686 63 63 48.8698 63 31.5C63 14.1302 48.8686 0 31.5 0ZM31.5 60.5769C15.4677 60.5769 2.42308 47.5323 2.42308 31.5C2.42308 15.4677 15.4677 2.42308 31.5 2.42308C47.5323 2.42308 60.5769 15.4677 60.5769 31.5C60.5769 47.5323 47.5323 60.5769 31.5 60.5769Z" fill="#FFC72C" fill-opacity="0.95"/>
<path d="M31.4999 12.1152C30.8312 12.1152 30.2884 12.6568 30.2884 13.3268V39.9806C30.2884 40.6506 30.8312 41.1922 31.4999 41.1922C32.1687 41.1922 32.7115 40.6506 32.7115 39.9806V13.3268C32.7115 12.6568 32.1687 12.1152 31.4999 12.1152Z" fill="#FFC72C" fill-opacity="0.95"/>
<path d="M31.4999 44.8271C30.8312 44.8271 30.2884 45.3687 30.2884 46.0387V48.4618C30.2884 49.1317 30.8312 49.6733 31.4999 49.6733C32.1687 49.6733 32.7115 49.1317 32.7115 48.4618V46.0387C32.7115 45.3687 32.1687 44.8271 31.4999 44.8271Z" fill="#FFC72C" fill-opacity="0.95"/>
</svg>
