<svg width="24" height="24" viewBox="0 0 24 24" fill="none" xmlns="http://www.w3.org/2000/svg">
<path d="M2.39019 18.0983L10.6151 3.89171C11.0696 3.10655 11.2969 2.71396 11.5935 2.58211C11.8521 2.4671 12.1474 2.4671 12.4061 2.58211C12.7026 2.71396 12.9299 3.10654 13.3844 3.89171L21.6093 18.0983C22.0655 18.8863 22.2936 19.2803 22.2599 19.6037C22.2305 19.8857 22.0827 20.142 21.8534 20.3088C21.5904 20.5 21.1352 20.5 20.2246 20.5H3.77487C2.86435 20.5 2.40908 20.5 2.14613 20.3088C1.91677 20.142 1.769 19.8857 1.73959 19.6037C1.70588 19.2803 1.93398 18.8863 2.39019 18.0983Z" fill="#FDB022"/>
<path d="M12.4998 8.99999C12.4998 8.72384 12.2759 8.49999 11.9998 8.49999C11.7236 8.49999 11.4998 8.72384 11.4998 8.99999H12.4998ZM11.4998 13C11.4998 13.2761 11.7236 13.5 11.9998 13.5C12.2759 13.5 12.4998 13.2761 12.4998 13H11.4998ZM11.9998 16.5C11.7236 16.5 11.4998 16.7238 11.4998 17C11.4998 17.2761 11.7236 17.5 11.9998 17.5V16.5ZM12.0098 17.5C12.2859 17.5 12.5098 17.2761 12.5098 17C12.5098 16.7238 12.2859 16.5 12.0098 16.5V17.5ZM10.6151 3.89171L11.0478 4.14223V4.14223L10.6151 3.89171ZM2.39019 18.0983L2.8229 18.3489L2.8229 18.3488L2.39019 18.0983ZM21.6093 18.0983L22.042 17.8478L21.6093 18.0983ZM13.3844 3.89171L13.8172 3.64119L13.3844 3.89171ZM21.8534 20.3088L21.5593 19.9044L21.5593 19.9044L21.8534 20.3088ZM22.2599 19.6037L22.7572 19.6555V19.6555L22.2599 19.6037ZM1.73959 19.6037L1.24229 19.6555L1.73959 19.6037ZM2.14613 20.3088L2.44016 19.9044L2.44016 19.9044L2.14613 20.3088ZM11.5935 2.58211L11.7966 3.03898V3.03898L11.5935 2.58211ZM12.4061 2.58211L12.6092 2.12524V2.12524L12.4061 2.58211ZM11.4998 8.99999V13H12.4998V8.99999H11.4998ZM11.9998 17.5H12.0098V16.5H11.9998V17.5ZM10.1824 3.64119L1.95747 17.8478L2.8229 18.3488L11.0478 4.14223L10.1824 3.64119ZM3.77487 21H20.2246V20H3.77487V21ZM22.042 17.8478L13.8172 3.64119L12.9517 4.14222L21.1766 18.3488L22.042 17.8478ZM20.2246 21C20.67 21 21.0388 21.0005 21.3275 20.974C21.6137 20.9477 21.9044 20.8899 22.1474 20.7132L21.5593 19.9044C21.5394 19.9189 21.471 19.9566 21.2362 19.9782C21.0039 19.9995 20.6898 20 20.2246 20V21ZM21.1766 18.3488C21.4097 18.7514 21.5666 19.0235 21.6645 19.2352C21.7636 19.4492 21.7652 19.5273 21.7626 19.5518L22.7572 19.6555C22.7884 19.3567 22.6928 19.0761 22.5721 18.8153C22.4504 18.5521 22.2652 18.2333 22.042 17.8478L21.1766 18.3488ZM22.1474 20.7132C22.4915 20.4631 22.7131 20.0786 22.7572 19.6555L21.7626 19.5518C21.7479 19.6929 21.674 19.821 21.5593 19.9044L22.1474 20.7132ZM1.95747 17.8478C1.73431 18.2333 1.54914 18.5521 1.42738 18.8153C1.30674 19.0761 1.21114 19.3567 1.24229 19.6555L2.2369 19.5518C2.23434 19.5273 2.23593 19.4492 2.33496 19.2352C2.43288 19.0235 2.58986 18.7514 2.8229 18.3489L1.95747 17.8478ZM3.77487 20C3.30975 20 2.99557 19.9995 2.76334 19.9782C2.52847 19.9566 2.46014 19.9189 2.44016 19.9044L1.85209 20.7132C2.09508 20.8899 2.38585 20.9477 2.67198 20.974C2.96075 21.0005 3.32947 21 3.77487 21V20ZM1.24229 19.6555C1.2864 20.0786 1.50805 20.4631 1.85209 20.7132L2.44016 19.9044C2.32549 19.821 2.2516 19.6929 2.2369 19.5518L1.24229 19.6555ZM11.0478 4.14223C11.28 3.74112 11.4372 3.47053 11.5715 3.28092C11.7073 3.08925 11.774 3.04904 11.7966 3.03898L11.3903 2.12524C11.1164 2.24703 10.9212 2.46904 10.7555 2.70292C10.5884 2.93885 10.4047 3.25714 10.1824 3.64119L11.0478 4.14223ZM13.8172 3.64119C13.5948 3.25713 13.4111 2.93885 13.244 2.70292C13.0783 2.46904 12.8831 2.24703 12.6092 2.12524L12.2029 3.03898C12.2255 3.04904 12.2922 3.08925 12.428 3.28092C12.5623 3.47053 12.7195 3.74112 12.9517 4.14222L13.8172 3.64119ZM11.7966 3.03898C11.9259 2.98147 12.0736 2.98147 12.2029 3.03898L12.6092 2.12524C12.2212 1.95272 11.7783 1.95272 11.3903 2.12524L11.7966 3.03898Z" fill="#FFFCF2"/>
</svg>
